:SAMPLES-PER-SECOND 30
:FULLY-SPECIFIED
:DEGREES
123
root  -48.7825 39.7794 15.496 -11.1716 -38.1625 5.42288
RightUpLeg  -19.2989 -8.54657 -6.1439
RightLeg  11.732 -2.27891 -0.145191
RightFoot  1.62056 -0.667046 5.97954
RightToes  -1.74624e-010 0 -3.6325e-017
Spine  5.37767 -1.15204 -4.8614
Spine1  8.42428 -1.85093 1.42123
HEad  -6.55118 3.40363 -4.99458
LeftShoulder1  8.40375 -11.789 -47.9605
LeftArm  -15.4028 3.51827 -21.2487
LeftForeArm  30.8282 -49.146 -10.6343
LeftHand  -0.244104 0.0205437 5.32207
RightShoulder  5.67644 8.90053 39.6427
RightArm  8.03922 -25.793 32.0737
RightForeArm  7.0013 16.0138 6.72775
RightHand  -0.389909 -1.31066 -11.0017
LeftUpLeg  8.86701 9.73319 -5.34852
LeftLeg  18.1039 4.82496 0.183642
LeftFoot  -17.7079 0.398957 5.28458
LeftToes  -2.54691e-011 4.12133e-011 -4.68171e-012
124
root  -49.9147 39.4356 16.7613 -11.2199 -36.8979 6.06979
RightUpLeg  -17.38 -7.24091 -7.77972
RightLeg  -0.286575 -3.92682 2.33443
RightFoot  -0.00363533 -0.736741 7.40805
RightToes  -1.74624e-010 0 -3.6325e-017
Spine  3.95929 -1.4676 -6.23629
Spine1  8.58388 -2.37943 2.55892
HEad  -6.13314 3.61627 -5.50571
LeftShoulder1  8.37984 -11.8122 -47.7491
LeftArm  -15.6092 2.32078 -21.0337
LeftForeArm  31.6432 -50.1735 -11.0125
LeftHand  -0.244104 0.0205437 5.32207
RightShoulder  5.54602 8.76607 39.1086
RightArm  2.1477 -25.8173 32.2137
RightForeArm  11.6072 12.5822 7.34852
RightHand  -0.376143 -1.46109 -10.9976
LeftUpLeg  11.1423 10.0802 -5.23433
LeftLeg  18.86 3.1965 0.113846
LeftFoot  -20.0807 0.42201 3.95291
LeftToes  -2.54691e-011 4.12133e-011 -4.68171e-012
125
root  -51.1185 39.0162 18.0294 -11.2899 -35.6323 6.79773
RightUpLeg  -17.0216 -7.91013 -8.30497
RightLeg  -4.87104 -3.06838 3.21376
RightFoot  0.0310157 -0.808309 8.10604
RightToes  -1.74624e-010 0 -3.6325e-017
Spine  2.48351 -1.75993 -7.53161
Spine1  8.58591 -2.71951 3.09985
HEad  -5.67228 3.52464 -5.65503
LeftShoulder1  8.22495 -11.8751 -46.654
LeftArm  -15.6293 2.01151 -21.5302
LeftForeArm  32.7779 -50.2969 -10.9801
LeftHand  -0.244104 0.0205437 5.32207
RightShoulder  5.55002 8.7433 39.2188
RightArm  -2.52287 -26.0763 32.2713
RightForeArm  14.1702 9.83276 7.28669
RightHand  -0.359372 -1.63292 -10.962
LeftUpLeg  13.0545 10.4661 -5.09194
LeftLeg  20.4912 1.49799 0.389636
LeftFoot  -22.1565 0.36921 2.47961
LeftToes  -2.54691e-011 4.12133e-011 -4.68171e-012
126
root  -52.242 38.7432 19.255 -10.8515 -35.4193 6.60988
RightUpLeg  -18.1496 -7.84477 -7.55635
RightLeg  -2.62619 -3.09092 3.31954
RightFoot  5.55437 -0.782344 5.66988
RightToes  -1.74624e-010 0 -3.6325e-017
Spine  1.43246 -1.79803 -6.45294
Spine1  8.83066 -2.58121 2.56814
HEad  -5.09467 3.09663 -4.64959
LeftShoulder1  8.07967 -11.8396 -45.9166
LeftArm  -15.5991 2.36594 -21.7043
LeftForeArm  33.2157 -49.7418 -10.7065
LeftHand  -0.244104 0.0205437 5.32207
RightShoulder  5.60856 8.71517 39.7743
RightArm  -4.43988 -26.2454 31.9746
RightForeArm  13.7285 8.6065 7.0825
RightHand  -0.362492 -1.66175 -11.139
LeftUpLeg  15.0027 10.109 -4.42238
LeftLeg  21.5102 1.16566 0.836218
LeftFoot  -23.2273 0.18827 0.500281
LeftToes  -2.54691e-011 4.12133e-011 -4.68171e-012
127
root  -53.3086 38.5099 20.5322 -10.0196 -36.5563 5.10568
RightUpLeg  -20.5196 -7.5979 -5.29622
RightLeg  4.38613 -1.83771 2.96697
RightFoot  13.1456 -0.323069 1.89376
RightToes  -1.74624e-010 0 -3.6325e-017
Spine  0.938772 -1.70294 -2.31065
Spine1  9.07251 -1.94618 0.456244
HEad  -5.31714 2.74776 -4.33759
LeftShoulder1  8.08697 -11.6198 -46.6455
LeftArm  -15.7639 3.4458 -21.0121
LeftForeArm  33.1923 -48.6445 -10.2512
LeftHand  -0.244104 0.0205437 5.32207
RightShoulder  5.60754 8.61604 40.1212
RightArm  -4.44568 -25.7079 31.5663
RightForeArm  12.3409 8.40405 7.18441
RightHand  -0.400644 -1.4393 -11.6579
LeftUpLeg  16.6323 9.36321 -2.7835
LeftLeg  23.8557 1.91459 1.27305
LeftFoot  -23.5962 -0.219218 -3.37529
LeftToes  -2.54691e-011 4.12133e-011 -4.68171e-012
128
root  -54.3242 38.3329 21.8019 -8.50964 -38.1156 2.24352
RightUpLeg  -22.5203 -9.24207 -1.1676
RightLeg  11.5244 2.49806 2.41963
RightFoot  16.6441 0.428401 -1.30245
RightToes  -1.74624e-010 0 -3.6325e-017
Spine  1.16389 -1.73986 3.21427
Spine1  8.72258 -1.4424 -1.69209
HEad  -5.94111 3.47225 -5.25943
LeftShoulder1  8.22413 -11.417 -48.1032
LeftArm  -16.3141 5.69479 -20.6902
LeftForeArm  33.0482 -46.3804 -9.39132
LeftHand  -0.244104 0.0205437 5.32207
RightShoulder  5.52256 8.53295 39.7547
RightArm  -3.73016 -24.4498 31.5544
RightForeArm  11.6971 8.39403 7.41416
RightHand  -0.463929 -0.974302 -12.1491
LeftUpLeg  16.3864 8.84783 -0.0989671
LeftLeg  29.7801 2.89756 2.16429
LeftFoot  -20.9489 -0.533964 -8.07385
LeftToes  -2.54691e-011 4.12133e-011 -4.68171e-012
129
root  -55.2455 38.3529 22.8609 -6.38937 -38.546 -0.986313
RightUpLeg  -23.2725 -10.6204 2.6023
RightLeg  16.4043 4.78476 2.02778
RightFoot  14.7373 1.05799 -4.15426
RightToes  -1.74624e-010 0 -3.6325e-017
Spine  2.05833 -2.05313 6.9993
Spine1  7.64317 -1.67879 -1.52636
HEad  -6.29545 4.26308 -6.23071
LeftShoulder1  8.36117 -11.3991 -48.9698
LeftArm  -16.7426 8.65409 -21.9594
LeftForeArm  31.324 -41.8479 -7.97452
LeftHand  -0.244104 0.0205437 5.32207
RightShoulder  5.42204 8.54596 38.9136
RightArm  -3.40332 -23.079 31.9063
RightForeArm  11.5421 8.51884 7.49166
RightHand  -0.532367 -0.330458 -12.2346
LeftUpLeg  12.5264 7.87084 2.54242
LeftLeg  39.5009 4.28402 4.18929
LeftFoot  -12.9705 -0.0903412 -9.86475
LeftToes  -2.54691e-011 4.12133e-011 -4.68171e-012
130
root  -56.0677 38.4636 23.6746 -4.73056 -37.3677 -3.04341
RightUpLeg  -23.1627 -11.0255 4.21436
RightLeg  19.4977 3.63021 1.62145
RightFoot  10.9801 1.28182 -6.08185
RightToes  -1.74624e-010 0 -3.6325e-017
Spine  3.27929 -2.529 7.83807
Spine1  6.40614 -2.36678 0.599186
HEad  -6.69338 4.27978 -6.38583
LeftShoulder1  8.40562 -11.4511 -49.0597
LeftArm  -15.8818 10.7539 -24.0642
LeftForeArm  27.206 -34.9016 -6.23073
LeftHand  -0.244104 0.0205437 5.32207
RightShoulder  5.36346 8.55297 38.4232
RightArm  -4.15431 -21.8876 32.0849
RightForeArm  10.636 9.36535 7.24819
RightHand  -0.602114 0.423941 -12.0965
LeftUpLeg  5.79918 6.58497 4.03926
LeftLeg  50.5652 5.06334 7.01647
LeftFoot  -3.85089 0.491232 -7.30621
LeftToes  -2.54691e-011 4.12133e-011 -4.68171e-012
131
root  -56.804 38.6894 24.3893 -4.03406 -35.8058 -3.60902
RightUpLeg  -22.0873 -11.5271 4.19565
RightLeg  20.4908 2.32078 1.48874
RightFoot  8.90104 1.22613 -6.50668
RightToes  -1.74624e-010 0 -3.6325e-017
Spine  4.32066 -2.78766 7.58082
Spine1  5.73964 -2.73207 2.04733
HEad  -7.5607 3.41532 -5.48548
LeftShoulder1  8.3556 -11.4188 -48.8723
LeftArm  -12.6129 11.2486 -25.3855
LeftForeArm  22.4978 -27.0789 -4.60881
LeftHand  -0.244104 0.0205437 5.32207
RightShoulder  5.33396 8.43274 38.6161
RightArm  -6.04509 -20.5695 31.926
RightForeArm  8.69832 10.8583 6.71169
RightHand  -0.687891 1.17283 -12.2792
LeftUpLeg  -0.97349 6.09852 4.22648
LeftLeg  59.0757 5.09867 9.64746
LeftFoot  -0.249176 0.341745 -3.32336
LeftToes  -2.54691e-011 4.12133e-011 -4.68171e-012
132
root  -57.4938 39.1106 25.1137 -3.94742 -34.9274 -3.25468
RightUpLeg  -19.9262 -11.8068 3.20945
RightLeg  19.3471 1.73773 2.01855
RightFoot  8.23916 1.15819 -6.3736
RightToes  -1.74624e-010 0 -3.6325e-017
Spine  4.86853 -2.66534 7.51562
Spine1  5.49536 -2.49012 1.56905
HEad  -8.66324 2.27499 -4.34132
LeftShoulder1  8.25283 -11.3587 -48.4648
LeftArm  -8.62287 11.3508 -25.4399
LeftForeArm  20.6803 -20.3501 -3.85146
LeftHand  -0.244104 0.0205437 5.32207
RightShoulder  5.28773 8.28449 38.7775
RightArm  -8.65278 -19.0113 31.6808
RightForeArm  6.80219 11.9918 6.12876
RightHand  -0.796661 1.81205 -12.9803
LeftUpLeg  -6.33095 6.92256 3.5717
LeftLeg  63.2304 4.9712 11.2107
LeftFoot  -2.13152 0.081074 -0.861737
LeftToes  -2.54691e-011 4.12133e-011 -4.68171e-012
133
root  -58.1364 39.5768 25.7985 -3.87335 -34.653 -2.64471
RightUpLeg  -17.4477 -11.1043 1.90527
RightLeg  17.1786 0.592453 2.8093
RightFoot  7.50354 1.15111 -6.61584
RightToes  -1.74624e-010 0 -3.6325e-017
Spine  5.25767 -2.3078 7.47083
Spine1  5.01449 -1.9521 0.508544
HEad  -9.54456 1.33358 -3.8083
LeftShoulder1  8.04509 -11.3142 -47.3724
LeftArm  -8.71235 12.5297 -24.7817
LeftForeArm  23.7082 -15.2999 -4.56112
LeftHand  -0.244104 0.0205437 5.32207
RightShoulder  5.18243 8.22003 38.1534
RightArm  -11.1727 -17.536 31.1033
RightForeArm  5.74206 12.1844 5.71126
RightHand  -0.889138 2.2349 -13.6928
LeftUpLeg  -10.635 8.28601 2.74175
LeftLeg  63.2005 4.7941 10.871
LeftFoot  -4.97228 0.089545 -1.11306
LeftToes  -2.54691e-011 4.12133e-011 -4.68171e-012
134
root  -58.7269 39.9534 26.4061 -3.65947 -34.5515 -1.87625
RightUpLeg  -15.3604 -9.487 0.552841
RightLeg  14.9277 -1.37092 3.47428
RightFoot  6.77728 1.15256 -6.92209
RightToes  -1.74624e-010 0 -3.6325e-017
Spine  5.6342 -1.82137 6.96982
Spine1  4.32337 -1.39719 -0.0340096
HEad  -10.1378 0.317849 -3.59128
LeftShoulder1  7.61486 -11.0612 -45.5659
LeftArm  -10.7337 14.4683 -23.7461
LeftForeArm  25.3725 -11.7382 -4.79257
LeftHand  -0.244104 0.0205437 5.32207
RightShoulder  4.96633 8.0981 36.7999
RightArm  -12.9691 -16.2526 29.5039
RightForeArm  5.03096 11.9131 5.44287
RightHand  -0.910058 2.30939 -13.8745
LeftUpLeg  -14.2955 9.68926 1.84647
LeftLeg  59.6779 4.87939 9.51748
LeftFoot  -6.09216 0.145265 -2.34594
LeftToes  -2.54691e-011 4.12133e-011 -4.68171e-012
135
root  -59.258 40.2702 26.9697 -3.49068 -34.5547 -0.896378
RightUpLeg  -13.68 -8.20775 -0.711579
RightLeg  12.8037 -2.51072 4.01118
RightFoot  6.6109 1.11735 -6.77397
RightToes  -1.74624e-010 0 -3.6325e-017
Spine  5.88709 -1.21843 6.33948
Spine1  3.82797 -0.753884 -0.569383
HEad  -10.5276 -1.33664 -2.88834
LeftShoulder1  7.00661 -10.4929 -43.541
LeftArm  -12.4267 16.0691 -21.7862
LeftForeArm  23.9381 -9.37847 -4.36155
LeftHand  -0.244104 0.0205437 5.32207
RightShoulder  4.62304 7.76348 35.0638
RightArm  -14.2741 -15.2071 26.713
RightForeArm  4.06336 11.7037 5.23467
RightHand  -0.870284 2.10249 -13.6315
LeftUpLeg  -16.7219 11.1878 0.768779
LeftLeg  52.8807 5.65804 8.42279
LeftFoot  -6.75227 0.157613 -2.91737
LeftToes  -2.54691e-011 4.12133e-011 -4.68171e-012
136
root  -59.7336 40.5639 27.519 -3.55173 -34.7346 0.0712128
RightUpLeg  -12.0647 -7.84895 -1.72498
RightLeg  10.9879 -2.26869 4.43318
RightFoot  6.50589 1.07918 -6.57704
RightToes  -1.74624e-010 0 -3.6325e-017
Spine  6.3192 -0.550805 6.16349
Spine1  3.01831 0.108384 -1.77659
HEad  -10.6331 -3.181 -1.89587
LeftShoulder1  6.4644 -10.0797 -41.2673
LeftArm  -13.2436 17.6288 -18.8223
LeftForeArm  22.1478 -8.09916 -3.74685
LeftHand  -0.244104 0.0205437 5.32207
RightShoulder  4.26382 7.44139 33.021
RightArm  -15.4342 -15.047 23.1802
RightForeArm  2.77891 11.3548 5.02515
RightHand  -0.847396 1.96876 -13.5117
LeftUpLeg  -17.1185 12.386 -0.180812
LeftLeg  43.1573 6.70083 7.0878
LeftFoot  -8.28922 0.140434 -3.46532
LeftToes  -2.54691e-011 4.12133e-011 -4.68171e-012
137
root  -60.1746 40.7873 28.0687 -3.82373 -35.1223 0.680206
RightUpLeg  -10.3884 -7.81041 -2.25174
RightLeg  9.84322 -1.70016 4.56839
RightFoot  5.85291 1.07216 -6.81571
RightToes  -1.74624e-010 0 -3.6325e-017
Spine  6.87562 0.0258864 6.38305
Spine1  2.04744 0.980173 -3.27414
HEad  -10.217 -3.84144 -0.928985
LeftShoulder1  5.88243 -9.81516 -37.9819
LeftArm  -13.488 19.7016 -16.02
LeftForeArm  19.8999 -7.55333 -3.299
LeftHand  -0.244104 0.0205437 5.32207
RightShoulder  3.92381 7.21799 30.6329
RightArm  -16.0669 -15.2907 19.4355
RightForeArm  1.48187 10.3423 4.85046
RightHand  -0.875771 2.11648 -13.6926
LeftUpLeg  -15.5244 12.762 -0.527619
LeftLeg  31.871 6.87625 4.96375
LeftFoot  -9.26192 0.141714 -4.59659
LeftToes  -2.54691e-011 4.12133e-011 -4.68171e-012
